<svg width="24" height="24" viewBox="0 0 24 24" fill="none" xmlns="http://www.w3.org/2000/svg">
<g clip-path="url(#clip0_210_2)">
<path d="M5.58658 7.69463H0.768544C0.554711 7.69463 0.381447 7.86797 0.381447 8.08173V23.56C0.381447 23.7739 0.554711 23.9471 0.768544 23.9471H5.58658C5.80041 23.9471 5.97368 23.7739 5.97368 23.56V8.08173C5.97368 7.86797 5.80041 7.69463 5.58658 7.69463Z" fill="black"/>
<path d="M3.1793 0C1.42622 0 0 1.42467 0 3.17582C0 4.92774 1.42622 6.35295 3.1793 6.35295C4.93099 6.35295 6.35605 4.92766 6.35605 3.17582C6.35613 1.42467 4.93099 0 3.1793 0Z" fill="black"/>
<path d="M17.8416 7.30994C15.9065 7.30994 14.476 8.14181 13.6084 9.08702V8.08173C13.6084 7.86798 13.4351 7.69463 13.2213 7.69463H8.60717C8.39334 7.69463 8.22008 7.86798 8.22008 8.08173V23.56C8.22008 23.7739 8.39334 23.9471 8.60717 23.9471H13.4147C13.6285 23.9471 13.8018 23.7739 13.8018 23.56V15.9019C13.8018 13.3212 14.5027 12.3159 16.3017 12.3159C18.2608 12.3159 18.4165 13.9276 18.4165 16.0346V23.5601C18.4165 23.7739 18.5898 23.9472 18.8036 23.9472H23.6129C23.8267 23.9472 24 23.7739 24 23.5601V15.07C24 11.2327 23.2683 7.30994 17.8416 7.30994Z" fill="black"/>
</g>
<defs>
<clipPath id="clip0_210_2">
<rect width="24" height="24" fill="white"/>
</clipPath>
</defs>
</svg>
